<?xml version="1.0" encoding="UTF-8" standalone="no"?>
<!-- Created with Inkscape (http://www.inkscape.org/) -->

<svg
   version="1.1"
   id="svg207"
   xml:space="preserve"
   width="32"
   height="32"
   viewBox="0 0 32 32"
   xmlns="http://www.w3.org/2000/svg"
   xmlns:svg="http://www.w3.org/2000/svg"><defs
     id="defs211"><clipPath
       clipPathUnits="userSpaceOnUse"
       id="clipPath221"><path
         d="M 0,24 H 24 V 0 H 0 Z"
         id="path219" /></clipPath></defs><g
     id="g213"
     transform="matrix(1.3333333,0,0,-1.3333333,0,32)"><g
       id="g215"><g
         id="g217"
         clip-path="url(#clipPath221)"><g
           id="g223"
           transform="translate(16.9497,20.9434)"><path
             d="m 0,0 c -1.367,1.367 -3.158,2.05 -4.95,2.05 -1.791,0 -3.583,-0.683 -4.949,-2.05 -2.734,-2.734 -2.734,-7.166 0,-9.899 L -4.95,-14.741 0,-9.899 C 2.734,-7.166 2.734,-2.734 0,0 Z"
             style="fill:none;stroke:#000000;stroke-width:2;stroke-linecap:butt;stroke-linejoin:miter;stroke-miterlimit:10;stroke-dasharray:none;stroke-opacity:1"
             id="path225" /></g><g
           id="g227"
           transform="translate(9,16.001)"><path
             d="M 0,0 C 0,1.657 1.343,3 3,3 4.657,3 6,1.657 6,0 6,-1.657 4.657,-3 3,-3 1.343,-3 0,-1.657 0,0 Z"
             style="fill:none;stroke:#000000;stroke-width:2;stroke-linecap:butt;stroke-linejoin:miter;stroke-miterlimit:10;stroke-dasharray:none;stroke-opacity:1"
             id="path229" /></g><g
           id="g231"
           transform="translate(5.7227,13.1382)"><path
             d="M 0,0 -1.953,0.706 C -3.27,1.255 -4.723,0.287 -4.723,-1.14 v -8.998 l 7,-2 8,2 7,-1.705 v 9.221 c 0,0.893 -0.591,1.678 -1.45,1.923 l -2.854,0.955"
             style="fill:none;stroke:#000000;stroke-width:2;stroke-linecap:butt;stroke-linejoin:miter;stroke-miterlimit:10;stroke-dasharray:none;stroke-opacity:1"
             id="path233" /></g></g></g></g></svg>
